<?xml version="1.0" standalone="no"?>
<!DOCTYPE svg PUBLIC "-//W3C//DTD SVG 20010904//EN"
 "http://www.w3.org/TR/2001/REC-SVG-20010904/DTD/svg10.dtd">
<svg version="1.0" xmlns="http://www.w3.org/2000/svg"
 width="512.000000pt" height="512.000000pt" viewBox="0 0 512.000000 512.000000"
 preserveAspectRatio="xMidYMid meet">
<metadata>
Created by potrace 1.11, written by Peter Selinger 2001-2013
</metadata>
<g transform="translate(0.000000,512.000000) scale(0.100000,-0.100000)"
fill="#000000" stroke="none">
<path d="M1741 3518 c-5 -13 -172 -403 -370 -867 -198 -465 -360 -846 -358
-847 1 -2 56 -4 122 -5 l120 -2 110 257 110 256 373 -2 374 -3 113 -250 113
-250 127 -3 c69 -1 125 1 123 5 -3 4 -177 396 -388 871 l-384 862 -88 0 c-82
0 -89 -2 -97 -22z m239 -675 l137 -308 -133 -3 c-73 -1 -196 -1 -272 0 l-140
3 122 295 c67 162 125 304 129 314 4 10 10 16 14 13 3 -4 68 -145 143 -314z"/>
<path d="M2880 2663 l0 -868 110 3 110 3 0 865 0 864 -110 0 -110 0 0 -867z"/>
<path d="M3478 2963 c-115 -113 -208 -210 -208 -215 0 -4 45 -8 99 -8 l100 0
3 -358 3 -357 33 -67 c87 -176 291 -231 531 -142 l71 26 0 104 0 103 -65 -30
c-131 -62 -244 -61 -306 0 -44 45 -49 82 -49 414 l0 307 180 0 180 0 0 100 0
100 -180 0 -179 0 -3 115 -3 114 -207 -206z"/>
</g>
</svg>
